<svg xmlns="http://www.w3.org/2000/svg" viewBox="112 112 288 288">
  <g transform="translate(106 106) scale(3)">
  <path d="M55.54,25.42A25.2 25.2 0 0 1 62.95,28.38Q64.79,29.6 63.5,31.38L60.68,35.26Q59.39,37.05 57.53,35.88A16 16 0 0 0 54.3,34.59Q52.14,34.14 52.44,31.96L53.08,27.21Q53.38,25.03 55.54,25.42Z" fill="#5FD0C3"/>
  <path d="M56.94,15.08A35.6 35.6 0 0 1 69.07,19.94Q70.89,21.18 69.6,22.96L66.78,26.84Q65.49,28.62 63.66,27.41A26.4 26.4 0 0 0 55.7,24.22Q53.54,23.84 53.83,21.66L54.48,16.9Q54.77,14.72 56.94,15.08Z" fill="#27C0AD"/>
  <path d="M58.34,4.76A46 46 0 0 1 75.19,11.51Q77,12.76 75.71,14.54L72.89,18.42Q71.6,20.2 69.78,18.97A36.8 36.8 0 0 0 57.1,13.89Q54.93,13.53 55.23,11.35L55.87,6.59Q56.16,4.41 58.34,4.76Z" fill="#14B8A6"/>
  <path d="M67.61,31.98A25.2 25.2 0 0 1 72.37,38.39Q73.29,40.39 71.26,41.23L66.82,43.06Q64.79,43.9 63.81,41.93A16 16 0 0 0 61.74,39.13Q60.14,37.62 61.54,35.92L64.58,32.21Q65.97,30.51 67.61,31.98Z" fill="#5FD0C3"/>
  <path d="M74.22,23.91A35.6 35.6 0 0 1 82.01,34.41Q82.91,36.42 80.87,37.26L76.44,39.09Q74.4,39.93 73.48,37.93A26.4 26.4 0 0 0 68.38,31.04Q66.73,29.58 68.13,27.88L71.17,24.17Q72.57,22.47 74.22,23.91Z" fill="#27C0AD"/>
  <path d="M80.83,15.86A46 46 0 0 1 91.63,30.44Q92.52,32.45 90.49,33.29L86.05,35.12Q84.02,35.96 83.12,33.95A36.8 36.8 0 0 0 74.99,22.98Q73.33,21.54 74.72,19.84L77.76,16.12Q79.16,14.42 80.83,15.86Z" fill="#14B8A6"/>
  <path d="M74.45,43.89A25.2 25.2 0 0 1 75.13,51.85Q74.88,54.03 72.7,53.68L67.97,52.91Q65.79,52.56 66,50.37A16 16 0 0 0 65.7,46.91Q65.13,44.78 67.21,44.07L71.74,42.5Q73.82,41.78 74.45,43.89Z" fill="#A7E05B"/>
  <path d="M84.31,40.49A35.6 35.6 0 0 1 85.43,53.52Q85.14,55.7 82.97,55.35L78.23,54.58Q76.06,54.22 76.32,52.04A26.4 26.4 0 0 0 75.59,43.5Q74.96,41.39 77.04,40.68L81.58,39.11Q83.65,38.39 84.31,40.49Z" fill="#92D62E"/>
  <path d="M94.15,37.1A46 46 0 0 1 95.71,55.18Q95.41,57.36 93.24,57.01L88.5,56.24Q86.33,55.89 86.61,53.71A36.8 36.8 0 0 0 85.44,40.1Q84.79,38 86.87,37.29L91.41,35.72Q93.49,35 94.15,37.1Z" fill="#84CC16"/>
  <path d="M74.02,57.62A25.2 25.2 0 0 1 70.43,64.76Q69.06,66.48 67.4,65.04L63.77,61.9Q62.1,60.46 63.42,58.71A16 16 0 0 0 64.99,55.6Q65.61,53.49 67.76,53.97L72.45,55.02Q74.59,55.5 74.02,57.62Z" fill="#FBC56B"/>
  <path d="M84.2,59.9A35.6 35.6 0 0 1 78.32,71.58Q76.93,73.28 75.27,71.84L71.64,68.7Q69.97,67.27 71.34,65.54A26.4 26.4 0 0 0 75.19,57.89Q75.76,55.76 77.91,56.24L82.59,57.29Q84.74,57.77 84.2,59.9Z" fill="#F8AB3C"/>
  <path d="M94.36,62.18A46 46 0 0 1 86.2,78.39Q84.8,80.08 83.13,78.65L79.5,75.51Q77.84,74.07 79.23,72.36A36.8 36.8 0 0 0 85.37,60.16Q85.91,58.03 88.06,58.51L92.74,59.56Q94.89,60.04 94.36,62.18Z" fill="#F59E0B"/>
  <path d="M66.45,69.09A25.2 25.2 0 0 1 59.65,73.28Q57.59,74.03 56.92,71.93L55.48,67.36Q54.82,65.26 56.86,64.45A16 16 0 0 0 59.82,62.63Q61.46,61.16 63.04,62.7L66.48,66.05Q68.05,67.58 66.45,69.09Z" fill="#FBC56B"/>
  <path d="M73.92,76.37A35.6 35.6 0 0 1 62.79,83.22Q60.72,83.95 60.05,81.85L58.61,77.27Q57.95,75.18 60.01,74.43A26.4 26.4 0 0 0 67.31,69.93Q68.91,68.42 70.49,69.96L73.93,73.3Q75.5,74.84 73.92,76.37Z" fill="#F8AB3C"/>
  <path d="M81.38,83.63A46 46 0 0 1 65.93,93.15Q63.85,93.87 63.18,91.77L61.74,87.19Q61.08,85.09 63.15,84.37A36.8 36.8 0 0 0 74.78,77.21Q76.36,75.68 77.94,77.21L81.38,80.56Q82.95,82.1 81.38,83.63Z" fill="#F59E0B"/>
  <path d="M53.99,74.88A25.2 25.2 0 0 1 46.01,74.88Q43.85,74.44 44.39,72.31L45.56,67.65Q46.1,65.52 48.26,65.91A16 16 0 0 0 51.74,65.91Q53.9,65.52 54.44,67.65L55.61,72.31Q56.15,74.44 53.99,74.88Z" fill="#FBC56B"/>
  <path d="M56.53,85A35.6 35.6 0 0 1 43.47,85Q41.32,84.52 41.85,82.39L43.02,77.74Q43.56,75.6 45.71,76.05A26.4 26.4 0 0 0 54.29,76.05Q56.44,75.6 56.98,77.74L58.15,82.39Q58.68,84.52 56.53,85Z" fill="#F8AB3C"/>
  <path d="M59.07,95.1A46 46 0 0 1 40.93,95.1Q38.78,94.61 39.32,92.48L40.49,87.82Q41.02,85.69 43.17,86.16A36.8 36.8 0 0 0 56.83,86.16Q58.98,85.69 59.51,87.82L60.68,92.48Q61.22,94.61 59.07,95.1Z" fill="#F59E0B"/>
  <path d="M40.35,73.28A25.2 25.2 0 0 1 33.55,69.09Q31.95,67.58 33.52,66.05L36.96,62.7Q38.54,61.16 40.18,62.63A16 16 0 0 0 43.14,64.45Q45.18,65.26 44.52,67.36L43.08,71.93Q42.41,74.03 40.35,73.28Z" fill="#B7A1FB"/>
  <path d="M37.21,83.22A35.6 35.6 0 0 1 26.08,76.37Q24.5,74.84 26.07,73.3L29.51,69.96Q31.09,68.42 32.69,69.93A26.4 26.4 0 0 0 39.99,74.43Q42.05,75.18 41.39,77.27L39.95,81.85Q39.28,83.95 37.21,83.22Z" fill="#9D7BF8"/>
  <path d="M34.07,93.15A46 46 0 0 1 18.62,83.63Q17.05,82.1 18.62,80.56L22.06,77.21Q23.64,75.68 25.22,77.21A36.8 36.8 0 0 0 36.85,84.37Q38.92,85.09 38.26,87.19L36.82,91.77Q36.15,93.87 34.07,93.15Z" fill="#8B5CF6"/>
  <path d="M29.57,64.76A25.2 25.2 0 0 1 25.98,57.62Q25.41,55.5 27.55,55.02L32.24,53.97Q34.39,53.49 35.01,55.6A16 16 0 0 0 36.58,58.71Q37.9,60.46 36.23,61.9L32.6,65.04Q30.94,66.48 29.57,64.76Z" fill="#B7A1FB"/>
  <path d="M21.68,71.58A35.6 35.6 0 0 1 15.8,59.9Q15.26,57.77 17.41,57.29L22.09,56.24Q24.24,55.76 24.81,57.89A26.4 26.4 0 0 0 28.66,65.54Q30.03,67.27 28.36,68.7L24.73,71.84Q23.07,73.28 21.68,71.58Z" fill="#9D7BF8"/>
  <path d="M13.8,78.39A46 46 0 0 1 5.64,62.18Q5.11,60.04 7.26,59.56L11.94,58.51Q14.09,58.03 14.63,60.16A36.8 36.8 0 0 0 20.77,72.36Q22.16,74.07 20.5,75.51L16.87,78.65Q15.2,80.08 13.8,78.39Z" fill="#8B5CF6"/>
  <path d="M24.87,51.85A25.2 25.2 0 0 1 25.55,43.89Q26.18,41.78 28.26,42.5L32.79,44.07Q34.87,44.78 34.3,46.91A16 16 0 0 0 34,50.37Q34.21,52.56 32.03,52.91L27.3,53.68Q25.12,54.03 24.87,51.85Z" fill="#B7A1FB"/>
  <path d="M14.57,53.52A35.6 35.6 0 0 1 15.69,40.49Q16.35,38.39 18.42,39.11L22.96,40.68Q25.04,41.39 24.41,43.5A26.4 26.4 0 0 0 23.68,52.04Q23.94,54.22 21.77,54.58L17.03,55.35Q14.86,55.7 14.57,53.52Z" fill="#9D7BF8"/>
  <path d="M4.29,55.18A46 46 0 0 1 5.85,37.1Q6.51,35 8.59,35.72L13.13,37.29Q15.21,38 14.56,40.1A36.8 36.8 0 0 0 13.39,53.71Q13.67,55.89 11.5,56.24L6.76,57.01Q4.59,57.36 4.29,55.18Z" fill="#8B5CF6"/>
  <path d="M27.63,38.39A25.2 25.2 0 0 1 32.39,31.98Q34.03,30.51 35.42,32.21L38.46,35.92Q39.86,37.62 38.26,39.13A16 16 0 0 0 36.19,41.93Q35.21,43.9 33.18,43.06L28.74,41.23Q26.71,40.39 27.63,38.39Z" fill="#60B5F6"/>
  <path d="M17.99,34.41A35.6 35.6 0 0 1 25.78,23.91Q27.43,22.47 28.83,24.17L31.87,27.88Q33.27,29.58 31.62,31.04A26.4 26.4 0 0 0 26.52,37.93Q25.6,39.93 23.56,39.09L19.13,37.26Q17.09,36.42 17.99,34.41Z" fill="#2F73E6"/>
  <path d="M8.37,30.44A46 46 0 0 1 19.17,15.86Q20.84,14.42 22.24,16.12L25.28,19.84Q26.67,21.54 25.01,22.98A36.8 36.8 0 0 0 16.88,33.95Q15.98,35.96 13.95,35.12L9.51,33.29Q7.48,32.45 8.37,30.44Z" fill="#2563EB"/>
  <path d="M37.05,28.38A25.2 25.2 0 0 1 44.46,25.42Q46.62,25.03 46.92,27.21L47.56,31.96Q47.86,34.14 45.7,34.59A16 16 0 0 0 42.47,35.88Q40.61,37.05 39.32,35.26L36.5,31.38Q35.21,29.6 37.05,28.38Z" fill="#60B5F6"/>
  <path d="M30.93,19.94A35.6 35.6 0 0 1 43.06,15.08Q45.23,14.72 45.52,16.9L46.17,21.66Q46.46,23.84 44.3,24.22A26.4 26.4 0 0 0 36.34,27.41Q34.51,28.62 33.22,26.84L30.4,22.96Q29.11,21.18 30.93,19.94Z" fill="#2F73E6"/>
  <path d="M24.81,11.51A46 46 0 0 1 41.66,4.76Q43.84,4.41 44.13,6.59L44.77,11.35Q45.07,13.53 42.9,13.89A36.8 36.8 0 0 0 30.22,18.97Q28.4,20.2 27.11,18.42L24.29,14.54Q23,12.76 24.81,11.51Z" fill="#2563EB"/>
  </g>
</svg>
